<?xml version="1.0" encoding="UTF-8" standalone="no"?><svg xmlns="http://www.w3.org/2000/svg" xmlns:xlink="http://www.w3.org/1999/xlink" contentStyleType="text/css" height="447px" preserveAspectRatio="none" style="width:413px;height:447px;background:#FFFFFF;" version="1.1" viewBox="0 0 413 447" width="413px" zoomAndPan="magnify"><defs><filter height="300%" id="fshg4zv07me43" width="300%" x="-1" y="-1"><feGaussianBlur result="blurOut" stdDeviation="2.0"/><feColorMatrix in="blurOut" result="blurOut2" type="matrix" values="0 0 0 0 0 0 0 0 0 0 0 0 0 0 0 0 0 0 .4 0"/><feOffset dx="4.0" dy="4.0" in="blurOut2" result="blurOut3"/><feBlend in="SourceGraphic" in2="blurOut3" mode="normal"/></filter></defs><g><rect fill="none" height="27.6094" id="_title" style="stroke:none;stroke-width:1.0;" width="196" x="101.75" y="5"/><text fill="#000000" font-family="sans-serif" font-size="14" font-weight="bold" lengthAdjust="spacing" textLength="186" x="106.75" y="24.5332">Stigespill - Klasse Diagram</text><!--MD5=[84cf3236217fe7cb7b077db6a09d1cf1]
class Stigespill--><g id="elem_Stigespill"><rect codeLine="6" fill="#FEFECE" filter="url(#fshg4zv07me43)" height="48" id="Stigespill" style="stroke:#A80036;stroke-width:1.0;" width="88" x="189.5" y="54.6094"/><ellipse cx="204.5" cy="70.6094" fill="#ADD1B2" rx="11" ry="11" style="stroke:#A80036;stroke-width:1.0;"/><path d="M207.2656,66.4844 Q207.4219,66.2656 207.6094,66.1563 Q207.7969,66.0469 208.0156,66.0469 Q208.3906,66.0469 208.625,66.3125 Q208.8594,66.5625 208.8594,67.1719 L208.8594,68.625 Q208.8594,69.2344 208.625,69.5 Q208.3906,69.7656 208.0156,69.7656 Q207.6719,69.7656 207.4688,69.5625 Q207.2656,69.375 207.1563,68.8594 Q207.1094,68.5 206.9219,68.3125 Q206.5938,67.9375 205.9844,67.7188 Q205.375,67.5 204.75,67.5 Q203.9844,67.5 203.3438,67.8281 Q202.7188,68.1563 202.2188,68.9063 Q201.7344,69.6563 201.7344,70.6875 L201.7344,71.7813 Q201.7344,73.0156 202.625,73.8438 Q203.5156,74.6563 205.1094,74.6563 Q206.0469,74.6563 206.7031,74.4063 Q207.0938,74.25 207.5156,73.8125 Q207.7813,73.5469 207.9219,73.4688 Q208.0781,73.3906 208.2813,73.3906 Q208.6094,73.3906 208.8594,73.6563 Q209.125,73.9063 209.125,74.25 Q209.125,74.5938 208.7813,75 Q208.2813,75.5781 207.4844,75.9063 Q206.4063,76.3594 205.1094,76.3594 Q203.5938,76.3594 202.3906,75.7344 Q201.4063,75.2344 200.7188,74.1719 Q200.0313,73.0938 200.0313,71.8125 L200.0313,70.6563 Q200.0313,69.3281 200.6406,68.1875 Q201.2656,67.0313 202.3594,66.4219 Q203.4531,65.7969 204.6875,65.7969 Q205.4219,65.7969 206.0625,65.9688 Q206.7188,66.125 207.2656,66.4844 Z " fill="#000000"/><text fill="#000000" font-family="sans-serif" font-size="14" lengthAdjust="spacing" textLength="56" x="218.5" y="76.3379">Stigespill</text><line style="stroke:#A80036;stroke-width:1.0;" x1="190.5" x2="276.5" y1="86.6094" y2="86.6094"/><line style="stroke:#A80036;stroke-width:1.0;" x1="190.5" x2="276.5" y1="94.6094" y2="94.6094"/></g><!--MD5=[d32527e80c9aede3ed19898949973df6]
class Brett--><g id="elem_Brett"><rect codeLine="7" fill="#FEFECE" filter="url(#fshg4zv07me43)" height="48" id="Brett" style="stroke:#A80036;stroke-width:1.0;" width="62" x="314.5" y="207.1094"/><ellipse cx="329.5" cy="223.1094" fill="#ADD1B2" rx="11" ry="11" style="stroke:#A80036;stroke-width:1.0;"/><path d="M332.2656,218.9844 Q332.4219,218.7656 332.6094,218.6563 Q332.7969,218.5469 333.0156,218.5469 Q333.3906,218.5469 333.625,218.8125 Q333.8594,219.0625 333.8594,219.6719 L333.8594,221.125 Q333.8594,221.7344 333.625,222 Q333.3906,222.2656 333.0156,222.2656 Q332.6719,222.2656 332.4688,222.0625 Q332.2656,221.875 332.1563,221.3594 Q332.1094,221 331.9219,220.8125 Q331.5938,220.4375 330.9844,220.2188 Q330.375,220 329.75,220 Q328.9844,220 328.3438,220.3281 Q327.7188,220.6563 327.2188,221.4063 Q326.7344,222.1563 326.7344,223.1875 L326.7344,224.2813 Q326.7344,225.5156 327.625,226.3438 Q328.5156,227.1563 330.1094,227.1563 Q331.0469,227.1563 331.7031,226.9063 Q332.0938,226.75 332.5156,226.3125 Q332.7813,226.0469 332.9219,225.9688 Q333.0781,225.8906 333.2813,225.8906 Q333.6094,225.8906 333.8594,226.1563 Q334.125,226.4063 334.125,226.75 Q334.125,227.0938 333.7813,227.5 Q333.2813,228.0781 332.4844,228.4063 Q331.4063,228.8594 330.1094,228.8594 Q328.5938,228.8594 327.3906,228.2344 Q326.4063,227.7344 325.7188,226.6719 Q325.0313,225.5938 325.0313,224.3125 L325.0313,223.1563 Q325.0313,221.8281 325.6406,220.6875 Q326.2656,219.5313 327.3594,218.9219 Q328.4531,218.2969 329.6875,218.2969 Q330.4219,218.2969 331.0625,218.4688 Q331.7188,218.625 332.2656,218.9844 Z " fill="#000000"/><text fill="#000000" font-family="sans-serif" font-size="14" lengthAdjust="spacing" textLength="30" x="343.5" y="228.8379">Brett</text><line style="stroke:#A80036;stroke-width:1.0;" x1="315.5" x2="375.5" y1="239.1094" y2="239.1094"/><line style="stroke:#A80036;stroke-width:1.0;" x1="315.5" x2="375.5" y1="247.1094" y2="247.1094"/></g><!--MD5=[3628ea1b85af7540fd66607c2d6ca3f5]
class Rute--><g id="elem_Rute"><rect codeLine="8" fill="#FEFECE" filter="url(#fshg4zv07me43)" height="65.6094" id="Rute" style="stroke:#A80036;stroke-width:1.0;" width="79" x="171" y="359.1094"/><ellipse cx="193.65" cy="375.1094" fill="#ADD1B2" rx="11" ry="11" style="stroke:#A80036;stroke-width:1.0;"/><path d="M196.4156,370.9844 Q196.5719,370.7656 196.7594,370.6563 Q196.9469,370.5469 197.1656,370.5469 Q197.5406,370.5469 197.775,370.8125 Q198.0094,371.0625 198.0094,371.6719 L198.0094,373.125 Q198.0094,373.7344 197.775,374 Q197.5406,374.2656 197.1656,374.2656 Q196.8219,374.2656 196.6188,374.0625 Q196.4156,373.875 196.3063,373.3594 Q196.2594,373 196.0719,372.8125 Q195.7438,372.4375 195.1344,372.2188 Q194.525,372 193.9,372 Q193.1344,372 192.4938,372.3281 Q191.8688,372.6563 191.3688,373.4063 Q190.8844,374.1563 190.8844,375.1875 L190.8844,376.2813 Q190.8844,377.5156 191.775,378.3438 Q192.6656,379.1563 194.2594,379.1563 Q195.1969,379.1563 195.8531,378.9063 Q196.2438,378.75 196.6656,378.3125 Q196.9313,378.0469 197.0719,377.9688 Q197.2281,377.8906 197.4313,377.8906 Q197.7594,377.8906 198.0094,378.1563 Q198.275,378.4063 198.275,378.75 Q198.275,379.0938 197.9313,379.5 Q197.4313,380.0781 196.6344,380.4063 Q195.5563,380.8594 194.2594,380.8594 Q192.7438,380.8594 191.5406,380.2344 Q190.5563,379.7344 189.8688,378.6719 Q189.1813,377.5938 189.1813,376.3125 L189.1813,375.1563 Q189.1813,373.8281 189.7906,372.6875 Q190.4156,371.5313 191.5094,370.9219 Q192.6031,370.2969 193.8375,370.2969 Q194.5719,370.2969 195.2125,370.4688 Q195.8688,370.625 196.4156,370.9844 Z " fill="#000000"/><text fill="#000000" font-family="sans-serif" font-size="14" lengthAdjust="spacing" textLength="30" x="209.35" y="380.8379">Rute</text><line style="stroke:#A80036;stroke-width:1.0;" x1="172" x2="249" y1="391.1094" y2="391.1094"/><ellipse cx="182" cy="405.4141" fill="none" rx="3" ry="3" style="stroke:#038048;stroke-width:1.0;"/><text fill="#000000" font-family="sans-serif" font-size="14" lengthAdjust="spacing" textLength="53" x="191" y="409.6426">Posisjon</text><line style="stroke:#A80036;stroke-width:1.0;" x1="172" x2="249" y1="416.7188" y2="416.7188"/></g><!--MD5=[7a77a1f0ce9ef2f4094e2caad1ea436f]
class Slange--><g id="elem_Slange"><rect codeLine="11" fill="#FEFECE" filter="url(#fshg4zv07me43)" height="83.2188" id="Slange" style="stroke:#A80036;stroke-width:1.0;" width="80" x="306.5" y="350.6094"/><ellipse cx="323.3" cy="366.6094" fill="#ADD1B2" rx="11" ry="11" style="stroke:#A80036;stroke-width:1.0;"/><path d="M326.0656,362.4844 Q326.2219,362.2656 326.4094,362.1563 Q326.5969,362.0469 326.8156,362.0469 Q327.1906,362.0469 327.425,362.3125 Q327.6594,362.5625 327.6594,363.1719 L327.6594,364.625 Q327.6594,365.2344 327.425,365.5 Q327.1906,365.7656 326.8156,365.7656 Q326.4719,365.7656 326.2688,365.5625 Q326.0656,365.375 325.9563,364.8594 Q325.9094,364.5 325.7219,364.3125 Q325.3938,363.9375 324.7844,363.7188 Q324.175,363.5 323.55,363.5 Q322.7844,363.5 322.1438,363.8281 Q321.5188,364.1563 321.0188,364.9063 Q320.5344,365.6563 320.5344,366.6875 L320.5344,367.7813 Q320.5344,369.0156 321.425,369.8438 Q322.3156,370.6563 323.9094,370.6563 Q324.8469,370.6563 325.5031,370.4063 Q325.8938,370.25 326.3156,369.8125 Q326.5813,369.5469 326.7219,369.4688 Q326.8781,369.3906 327.0813,369.3906 Q327.4094,369.3906 327.6594,369.6563 Q327.925,369.9063 327.925,370.25 Q327.925,370.5938 327.5813,371 Q327.0813,371.5781 326.2844,371.9063 Q325.2063,372.3594 323.9094,372.3594 Q322.3938,372.3594 321.1906,371.7344 Q320.2063,371.2344 319.5188,370.1719 Q318.8313,369.0938 318.8313,367.8125 L318.8313,366.6563 Q318.8313,365.3281 319.4406,364.1875 Q320.0656,363.0313 321.1594,362.4219 Q322.2531,361.7969 323.4875,361.7969 Q324.2219,361.7969 324.8625,361.9688 Q325.5188,362.125 326.0656,362.4844 Z " fill="#000000"/><text fill="#000000" font-family="sans-serif" font-size="14" lengthAdjust="spacing" textLength="44" x="337.7" y="372.3379">Slange</text><line style="stroke:#A80036;stroke-width:1.0;" x1="307.5" x2="385.5" y1="382.6094" y2="382.6094"/><ellipse cx="317.5" cy="396.9141" fill="none" rx="3" ry="3" style="stroke:#038048;stroke-width:1.0;"/><text fill="#000000" font-family="sans-serif" font-size="14" lengthAdjust="spacing" textLength="54" x="326.5" y="401.1426">StartPos</text><ellipse cx="317.5" cy="414.5234" fill="none" rx="3" ry="3" style="stroke:#038048;stroke-width:1.0;"/><text fill="#000000" font-family="sans-serif" font-size="14" lengthAdjust="spacing" textLength="52" x="326.5" y="418.752">SluttPos</text><line style="stroke:#A80036;stroke-width:1.0;" x1="307.5" x2="385.5" y1="425.8281" y2="425.8281"/></g><!--MD5=[fbcca8b8fc7591c8aba43f2bab0d3239]
class Stige--><g id="elem_Stige"><rect codeLine="15" fill="#FEFECE" filter="url(#fshg4zv07me43)" height="83.2188" id="Stige" style="stroke:#A80036;stroke-width:1.0;" width="80" x="138.5" y="189.6094"/><ellipse cx="160.7" cy="205.6094" fill="#ADD1B2" rx="11" ry="11" style="stroke:#A80036;stroke-width:1.0;"/><path d="M163.4656,201.4844 Q163.6219,201.2656 163.8094,201.1563 Q163.9969,201.0469 164.2156,201.0469 Q164.5906,201.0469 164.825,201.3125 Q165.0594,201.5625 165.0594,202.1719 L165.0594,203.625 Q165.0594,204.2344 164.825,204.5 Q164.5906,204.7656 164.2156,204.7656 Q163.8719,204.7656 163.6688,204.5625 Q163.4656,204.375 163.3563,203.8594 Q163.3094,203.5 163.1219,203.3125 Q162.7938,202.9375 162.1844,202.7188 Q161.575,202.5 160.95,202.5 Q160.1844,202.5 159.5438,202.8281 Q158.9188,203.1563 158.4188,203.9063 Q157.9344,204.6563 157.9344,205.6875 L157.9344,206.7813 Q157.9344,208.0156 158.825,208.8438 Q159.7156,209.6563 161.3094,209.6563 Q162.2469,209.6563 162.9031,209.4063 Q163.2938,209.25 163.7156,208.8125 Q163.9813,208.5469 164.1219,208.4688 Q164.2781,208.3906 164.4813,208.3906 Q164.8094,208.3906 165.0594,208.6563 Q165.325,208.9063 165.325,209.25 Q165.325,209.5938 164.9813,210 Q164.4813,210.5781 163.6844,210.9063 Q162.6063,211.3594 161.3094,211.3594 Q159.7938,211.3594 158.5906,210.7344 Q157.6063,210.2344 156.9188,209.1719 Q156.2313,208.0938 156.2313,206.8125 L156.2313,205.6563 Q156.2313,204.3281 156.8406,203.1875 Q157.4656,202.0313 158.5594,201.4219 Q159.6531,200.7969 160.8875,200.7969 Q161.6219,200.7969 162.2625,200.9688 Q162.9188,201.125 163.4656,201.4844 Z " fill="#000000"/><text fill="#000000" font-family="sans-serif" font-size="14" lengthAdjust="spacing" textLength="32" x="176.3" y="211.3379">Stige</text><line style="stroke:#A80036;stroke-width:1.0;" x1="139.5" x2="217.5" y1="221.6094" y2="221.6094"/><ellipse cx="149.5" cy="235.9141" fill="none" rx="3" ry="3" style="stroke:#038048;stroke-width:1.0;"/><text fill="#000000" font-family="sans-serif" font-size="14" lengthAdjust="spacing" textLength="54" x="158.5" y="240.1426">StartPos</text><ellipse cx="149.5" cy="253.5234" fill="none" rx="3" ry="3" style="stroke:#038048;stroke-width:1.0;"/><text fill="#000000" font-family="sans-serif" font-size="14" lengthAdjust="spacing" textLength="52" x="158.5" y="257.752">SluttPos</text><line style="stroke:#A80036;stroke-width:1.0;" x1="139.5" x2="217.5" y1="264.8281" y2="264.8281"/></g><!--MD5=[683bfe32d50c0f782d5289cea81cd6be]
class Spiller--><g id="elem_Spiller"><rect codeLine="19" fill="#FEFECE" filter="url(#fshg4zv07me43)" height="65.6094" id="Spiller" style="stroke:#A80036;stroke-width:1.0;" width="71" x="32" y="198.1094"/><ellipse cx="47" cy="214.1094" fill="#ADD1B2" rx="11" ry="11" style="stroke:#A80036;stroke-width:1.0;"/><path d="M49.7656,209.9844 Q49.9219,209.7656 50.1094,209.6563 Q50.2969,209.5469 50.5156,209.5469 Q50.8906,209.5469 51.125,209.8125 Q51.3594,210.0625 51.3594,210.6719 L51.3594,212.125 Q51.3594,212.7344 51.125,213 Q50.8906,213.2656 50.5156,213.2656 Q50.1719,213.2656 49.9688,213.0625 Q49.7656,212.875 49.6563,212.3594 Q49.6094,212 49.4219,211.8125 Q49.0938,211.4375 48.4844,211.2188 Q47.875,211 47.25,211 Q46.4844,211 45.8438,211.3281 Q45.2188,211.6563 44.7188,212.4063 Q44.2344,213.1563 44.2344,214.1875 L44.2344,215.2813 Q44.2344,216.5156 45.125,217.3438 Q46.0156,218.1563 47.6094,218.1563 Q48.5469,218.1563 49.2031,217.9063 Q49.5938,217.75 50.0156,217.3125 Q50.2813,217.0469 50.4219,216.9688 Q50.5781,216.8906 50.7813,216.8906 Q51.1094,216.8906 51.3594,217.1563 Q51.625,217.4063 51.625,217.75 Q51.625,218.0938 51.2813,218.5 Q50.7813,219.0781 49.9844,219.4063 Q48.9063,219.8594 47.6094,219.8594 Q46.0938,219.8594 44.8906,219.2344 Q43.9063,218.7344 43.2188,217.6719 Q42.5313,216.5938 42.5313,215.3125 L42.5313,214.1563 Q42.5313,212.8281 43.1406,211.6875 Q43.7656,210.5313 44.8594,209.9219 Q45.9531,209.2969 47.1875,209.2969 Q47.9219,209.2969 48.5625,209.4688 Q49.2188,209.625 49.7656,209.9844 Z " fill="#000000"/><text fill="#000000" font-family="sans-serif" font-size="14" lengthAdjust="spacing" textLength="39" x="61" y="219.8379">Spiller</text><line style="stroke:#A80036;stroke-width:1.0;" x1="33" x2="102" y1="230.1094" y2="230.1094"/><ellipse cx="43" cy="244.4141" fill="none" rx="3" ry="3" style="stroke:#038048;stroke-width:1.0;"/><text fill="#000000" font-family="sans-serif" font-size="14" lengthAdjust="spacing" textLength="32" x="52" y="248.6426">Navn</text><line style="stroke:#A80036;stroke-width:1.0;" x1="33" x2="102" y1="255.7188" y2="255.7188"/></g><!--MD5=[8ace0c6d8293b43664262972f22bc9a6]
class Brikke--><g id="elem_Brikke"><rect codeLine="22" fill="#FEFECE" filter="url(#fshg4zv07me43)" height="65.6094" id="Brikke" style="stroke:#A80036;stroke-width:1.0;" width="71" x="32" y="359.1094"/><ellipse cx="47" cy="375.1094" fill="#ADD1B2" rx="11" ry="11" style="stroke:#A80036;stroke-width:1.0;"/><path d="M49.7656,370.9844 Q49.9219,370.7656 50.1094,370.6563 Q50.2969,370.5469 50.5156,370.5469 Q50.8906,370.5469 51.125,370.8125 Q51.3594,371.0625 51.3594,371.6719 L51.3594,373.125 Q51.3594,373.7344 51.125,374 Q50.8906,374.2656 50.5156,374.2656 Q50.1719,374.2656 49.9688,374.0625 Q49.7656,373.875 49.6563,373.3594 Q49.6094,373 49.4219,372.8125 Q49.0938,372.4375 48.4844,372.2188 Q47.875,372 47.25,372 Q46.4844,372 45.8438,372.3281 Q45.2188,372.6563 44.7188,373.4063 Q44.2344,374.1563 44.2344,375.1875 L44.2344,376.2813 Q44.2344,377.5156 45.125,378.3438 Q46.0156,379.1563 47.6094,379.1563 Q48.5469,379.1563 49.2031,378.9063 Q49.5938,378.75 50.0156,378.3125 Q50.2813,378.0469 50.4219,377.9688 Q50.5781,377.8906 50.7813,377.8906 Q51.1094,377.8906 51.3594,378.1563 Q51.625,378.4063 51.625,378.75 Q51.625,379.0938 51.2813,379.5 Q50.7813,380.0781 49.9844,380.4063 Q48.9063,380.8594 47.6094,380.8594 Q46.0938,380.8594 44.8906,380.2344 Q43.9063,379.7344 43.2188,378.6719 Q42.5313,377.5938 42.5313,376.3125 L42.5313,375.1563 Q42.5313,373.8281 43.1406,372.6875 Q43.7656,371.5313 44.8594,370.9219 Q45.9531,370.2969 47.1875,370.2969 Q47.9219,370.2969 48.5625,370.4688 Q49.2188,370.625 49.7656,370.9844 Z " fill="#000000"/><text fill="#000000" font-family="sans-serif" font-size="14" lengthAdjust="spacing" textLength="39" x="61" y="380.8379">Brikke</text><line style="stroke:#A80036;stroke-width:1.0;" x1="33" x2="102" y1="391.1094" y2="391.1094"/><ellipse cx="43" cy="405.4141" fill="none" rx="3" ry="3" style="stroke:#038048;stroke-width:1.0;"/><text fill="#000000" font-family="sans-serif" font-size="14" lengthAdjust="spacing" textLength="38" x="52" y="409.6426">Farge</text><line style="stroke:#A80036;stroke-width:1.0;" x1="33" x2="102" y1="416.7188" y2="416.7188"/></g><!--MD5=[131d448e9c0afae1ae93db47c7e6485f]
class Terning--><g id="elem_Terning"><rect codeLine="25" fill="#FEFECE" filter="url(#fshg4zv07me43)" height="65.6094" id="Terning" style="stroke:#A80036;stroke-width:1.0;" width="81" x="7" y="45.6094"/><ellipse cx="22" cy="61.6094" fill="#ADD1B2" rx="11" ry="11" style="stroke:#A80036;stroke-width:1.0;"/><path d="M24.7656,57.4844 Q24.9219,57.2656 25.1094,57.1563 Q25.2969,57.0469 25.5156,57.0469 Q25.8906,57.0469 26.125,57.3125 Q26.3594,57.5625 26.3594,58.1719 L26.3594,59.625 Q26.3594,60.2344 26.125,60.5 Q25.8906,60.7656 25.5156,60.7656 Q25.1719,60.7656 24.9688,60.5625 Q24.7656,60.375 24.6563,59.8594 Q24.6094,59.5 24.4219,59.3125 Q24.0938,58.9375 23.4844,58.7188 Q22.875,58.5 22.25,58.5 Q21.4844,58.5 20.8438,58.8281 Q20.2188,59.1563 19.7188,59.9063 Q19.2344,60.6563 19.2344,61.6875 L19.2344,62.7813 Q19.2344,64.0156 20.125,64.8438 Q21.0156,65.6563 22.6094,65.6563 Q23.5469,65.6563 24.2031,65.4063 Q24.5938,65.25 25.0156,64.8125 Q25.2813,64.5469 25.4219,64.4688 Q25.5781,64.3906 25.7813,64.3906 Q26.1094,64.3906 26.3594,64.6563 Q26.625,64.9063 26.625,65.25 Q26.625,65.5938 26.2813,66 Q25.7813,66.5781 24.9844,66.9063 Q23.9063,67.3594 22.6094,67.3594 Q21.0938,67.3594 19.8906,66.7344 Q18.9063,66.2344 18.2188,65.1719 Q17.5313,64.0938 17.5313,62.8125 L17.5313,61.6563 Q17.5313,60.3281 18.1406,59.1875 Q18.7656,58.0313 19.8594,57.4219 Q20.9531,56.7969 22.1875,56.7969 Q22.9219,56.7969 23.5625,56.9688 Q24.2188,57.125 24.7656,57.4844 Z " fill="#000000"/><text fill="#000000" font-family="sans-serif" font-size="14" lengthAdjust="spacing" textLength="49" x="36" y="67.3379">Terning</text><line style="stroke:#A80036;stroke-width:1.0;" x1="8" x2="87" y1="77.6094" y2="77.6094"/><ellipse cx="18" cy="91.9141" fill="none" rx="3" ry="3" style="stroke:#038048;stroke-width:1.0;"/><text fill="#000000" font-family="sans-serif" font-size="14" lengthAdjust="spacing" textLength="33" x="27" y="96.1426">Verdi</text><line style="stroke:#A80036;stroke-width:1.0;" x1="8" x2="87" y1="103.2188" y2="103.2188"/></g><!--MD5=[d02329db5535473d6783c28a2e6dac52]
link Brett to Rute--><g id="link_Brett_Rute"><path codeLine="29" d="M321.37,255.1794 C307.73,268.5994 290.64,286.0794 276.5,302.6094 C261.17,320.5194 245.34,341.6494 233.02,358.7694 " fill="none" id="Brett-Rute" style="stroke:#A80036;stroke-width:1.0;"/><text fill="#000000" font-family="sans-serif" font-size="13" lengthAdjust="spacing" textLength="59" x="277.5" y="317.1045">Inneholder</text><text fill="#000000" font-family="sans-serif" font-size="13" lengthAdjust="spacing" textLength="7" x="307.6352" y="276.5344">1</text><text fill="#000000" font-family="sans-serif" font-size="13" lengthAdjust="spacing" textLength="21" x="214.3864" y="348.1987">100</text></g><!--MD5=[3076447629056286deafce9127b66db1]
link Brett to Slange--><g id="link_Brett_Slange"><path codeLine="30" d="M345.65,255.2294 C345.8,280.1194 346.05,320.2094 346.24,350.3994 " fill="none" id="Brett-Slange" style="stroke:#A80036;stroke-width:1.0;"/><text fill="#000000" font-family="sans-serif" font-size="13" lengthAdjust="spacing" textLength="59" x="346.5" y="317.1045">Inneholder</text><text fill="#000000" font-family="sans-serif" font-size="13" lengthAdjust="spacing" textLength="7" x="337.8334" y="276.5966">1</text><text fill="#000000" font-family="sans-serif" font-size="13" lengthAdjust="spacing" textLength="7" x="338.6173" y="339.6723">8</text></g><!--MD5=[2b46468502c166b5db2ad2509d95e6cc]
link Stige to Brett--><g id="link_Stige_Brett"><path codeLine="31" d="M218.5,231.1094 C247.93,231.1094 287.37,231.1094 314.44,231.1094 " fill="none" id="Stige-Brett" style="stroke:#A80036;stroke-width:1.0;"/><text fill="#000000" font-family="sans-serif" font-size="13" lengthAdjust="spacing" textLength="59" x="237" y="224.6045">Inneholder</text><text fill="#000000" font-family="sans-serif" font-size="13" lengthAdjust="spacing" textLength="7" x="226.5203" y="227.1417">8</text><text fill="#000000" font-family="sans-serif" font-size="13" lengthAdjust="spacing" textLength="7" x="299.448" y="226.7951">1</text></g><!--MD5=[a9576cc49a11ff890a7ad70160400cfa]
link Rute to Slange--><g id="link_Rute_Slange"><path codeLine="32" d="M250.2,392.1094 C267.76,392.1094 288.39,392.1094 306.04,392.1094 " fill="none" id="Rute-Slange" style="stroke:#A80036;stroke-width:1.0;"/><text fill="#000000" font-family="sans-serif" font-size="13" lengthAdjust="spacing" textLength="20" x="268.25" y="385.6045">Har</text><text fill="#000000" font-family="sans-serif" font-size="13" lengthAdjust="spacing" textLength="7" x="257.895" y="388.2456">2</text><text fill="#000000" font-family="sans-serif" font-size="13" lengthAdjust="spacing" textLength="22" x="276.4818" y="406.7892">0..1</text></g><!--MD5=[912f918a48605004c5065c4b35122508]
link Stige to Rute--><g id="link_Stige_Rute"><path codeLine="33" d="M174.15,273.0494 C173.56,288.1494 174.1,305.3094 177.5,320.6094 C180.41,333.6694 186,347.1694 191.77,358.8194 " fill="none" id="Stige-Rute" style="stroke:#A80036;stroke-width:1.0;"/><text fill="#000000" font-family="sans-serif" font-size="13" lengthAdjust="spacing" textLength="20" x="178.5" y="317.1045">Har</text><text fill="#000000" font-family="sans-serif" font-size="13" lengthAdjust="spacing" textLength="22" x="149.7995" y="294.2017">0..1</text><text fill="#000000" font-family="sans-serif" font-size="13" lengthAdjust="spacing" textLength="7" x="180.3935" y="348.2586">2</text></g><!--MD5=[cd4207804f35cb078d3b66e5040fe919]
link Stigespill to Spiller--><g id="link_Stigespill_Spiller"><path codeLine="34" d="M207.93,102.7994 C179.82,128.2694 134.49,169.3694 102.97,197.9494 " fill="none" id="Stigespill-Spiller" style="stroke:#A80036;stroke-width:1.0;"/><text fill="#000000" font-family="sans-serif" font-size="13" lengthAdjust="spacing" textLength="36" x="161.5" y="156.1045">Spiller</text><text fill="#000000" font-family="sans-serif" font-size="13" lengthAdjust="spacing" textLength="7" x="193.8442" y="124.1837">1</text><text fill="#000000" font-family="sans-serif" font-size="13" lengthAdjust="spacing" textLength="22" x="86.0169" y="187.0318">2..4</text></g><!--MD5=[b180875ae2c8d6ddc7f7be19fe5769ae]
link Stigespill to Brett--><g id="link_Stigespill_Brett"><path codeLine="35" d="M250.75,102.7994 C271.74,130.9994 306.96,178.3294 328.04,206.6494 " fill="none" id="Stigespill-Brett" style="stroke:#A80036;stroke-width:1.0;"/><text fill="#000000" font-family="sans-serif" font-size="13" lengthAdjust="spacing" textLength="7" x="247.1016" y="124.1837">1</text><text fill="#000000" font-family="sans-serif" font-size="13" lengthAdjust="spacing" textLength="7" x="315.931" y="196.2752">1</text></g><!--MD5=[4a7610758804d3012216035e15b67ddc]
link Terning to Stigespill--><g id="link_Terning_Stigespill"><path codeLine="36" d="M88.32,78.6094 C118.15,78.6094 158.58,78.6094 189.2,78.6094 " fill="none" id="Terning-Stigespill" style="stroke:#A80036;stroke-width:1.0;"/><text fill="#000000" font-family="sans-serif" font-size="13" lengthAdjust="spacing" textLength="65" x="106.25" y="72.1045">Spiller med</text><text fill="#000000" font-family="sans-serif" font-size="13" lengthAdjust="spacing" textLength="7" x="95.9375" y="74.7933">1</text><text fill="#000000" font-family="sans-serif" font-size="13" lengthAdjust="spacing" textLength="7" x="174.5819" y="74.8575">1</text></g><!--MD5=[ef330181d88a43b7e688d1950753eefa]
link Spiller to Brikke--><g id="link_Spiller_Brikke"><path codeLine="37" d="M67.5,264.2894 C67.5,291.8694 67.5,331.4094 67.5,358.9794 " fill="none" id="Spiller-Brikke" style="stroke:#A80036;stroke-width:1.0;"/><text fill="#000000" font-family="sans-serif" font-size="13" lengthAdjust="spacing" textLength="23" x="68.5" y="317.1045">Eier</text><text fill="#000000" font-family="sans-serif" font-size="13" lengthAdjust="spacing" textLength="7" x="59.8766" y="285.1858">1</text><text fill="#000000" font-family="sans-serif" font-size="13" lengthAdjust="spacing" textLength="7" x="59.7781" y="348.068">1</text></g><!--MD5=[9c4de56bde29491c5de84a438c649977]
link Brikke to Rute--><g id="link_Brikke_Rute"><path codeLine="38" d="M103.22,392.1094 C123.81,392.1094 149.75,392.1094 170.96,392.1094 " fill="none" id="Brikke-Rute" style="stroke:#A80036;stroke-width:1.0;"/><text fill="#000000" font-family="sans-serif" font-size="13" lengthAdjust="spacing" textLength="31" x="121.5" y="385.6045">Er på</text><text fill="#000000" font-family="sans-serif" font-size="13" lengthAdjust="spacing" textLength="22" x="110.958" y="406.991">0..4</text><text fill="#000000" font-family="sans-serif" font-size="13" lengthAdjust="spacing" textLength="7" x="156.0245" y="388.1979">1</text></g><!--MD5=[f048773c6ee946898b184f73ae9a7659]
@startuml Klassediagram

skin rose

title Stigespill - Klasse Diagram

class Stigespill{}
class Brett{}
class Rute{
	+Posisjon
}
class Slange{
	+StartPos
	+SluttPos
}
class Stige{
	+StartPos
	+SluttPos
}
class Spiller{
	+Navn
}
class Brikke{
	+Farge
}
class Terning{
	+Verdi
}

Brett "1" -down- "100" Rute: Inneholder
Brett "1" -right- "8" Slange: Inneholder
Brett "1" -left- "8" Stige: Inneholder
Rute "2" -right- "0..1" Slange: Har
Rute "2" -left- "0..1" Stige: Har
Stigespill "1" -down- "2..4" Spiller: Spiller
Stigespill "1" -down- "1" Brett
Stigespill "1" -left- "1" Terning: Spiller med
Spiller "1" -down- "1" Brikke: Eier
Brikke "0..4" -right- "1" Rute: Er på

@enduml

PlantUML version 1.2022.7(Mon Aug 22 19:01:30 CEST 2022)
(GPL source distribution)
Java Runtime: OpenJDK Runtime Environment
JVM: OpenJDK 64-Bit Server VM
Default Encoding: UTF-8
Language: en
Country: GB
--></g></svg>