<?xml version="1.0" encoding="UTF-8" standalone="no"?><svg xmlns="http://www.w3.org/2000/svg" xmlns:xlink="http://www.w3.org/1999/xlink" contentStyleType="text/css" height="482px" preserveAspectRatio="none" style="width:550px;height:482px;background:#FFFFFF;" version="1.1" viewBox="0 0 550 482" width="550px" zoomAndPan="magnify"><defs><filter height="300%" id="f1kg9qrz2md80b" width="300%" x="-1" y="-1"><feGaussianBlur result="blurOut" stdDeviation="2.0"/><feColorMatrix in="blurOut" result="blurOut2" type="matrix" values="0 0 0 0 0 0 0 0 0 0 0 0 0 0 0 0 0 0 .4 0"/><feOffset dx="4.0" dy="4.0" in="blurOut2" result="blurOut3"/><feBlend in="SourceGraphic" in2="blurOut3" mode="normal"/></filter></defs><g><rect fill="none" height="27.6094" id="_title" style="stroke:none;stroke-width:1.0;" width="196" x="170.25" y="5"/><text fill="#000000" font-family="sans-serif" font-size="14" font-weight="bold" lengthAdjust="spacing" textLength="186" x="175.25" y="24.5332">Stigespill - Klasse Diagram</text><!--MD5=[84cf3236217fe7cb7b077db6a09d1cf1]
class Stigespill--><g id="elem_Stigespill"><rect codeLine="6" fill="#FEFECE" filter="url(#f1kg9qrz2md80b)" height="100.8281" id="Stigespill" style="stroke:#A80036;stroke-width:1.0;" width="162" x="68.5" y="45.6094"/><ellipse cx="117.25" cy="61.6094" fill="#ADD1B2" rx="11" ry="11" style="stroke:#A80036;stroke-width:1.0;"/><path d="M120.0156,57.4844 Q120.1719,57.2656 120.3594,57.1563 Q120.5469,57.0469 120.7656,57.0469 Q121.1406,57.0469 121.375,57.3125 Q121.6094,57.5625 121.6094,58.1719 L121.6094,59.625 Q121.6094,60.2344 121.375,60.5 Q121.1406,60.7656 120.7656,60.7656 Q120.4219,60.7656 120.2188,60.5625 Q120.0156,60.375 119.9063,59.8594 Q119.8594,59.5 119.6719,59.3125 Q119.3438,58.9375 118.7344,58.7188 Q118.125,58.5 117.5,58.5 Q116.7344,58.5 116.0938,58.8281 Q115.4688,59.1563 114.9688,59.9063 Q114.4844,60.6563 114.4844,61.6875 L114.4844,62.7813 Q114.4844,64.0156 115.375,64.8438 Q116.2656,65.6563 117.8594,65.6563 Q118.7969,65.6563 119.4531,65.4063 Q119.8438,65.25 120.2656,64.8125 Q120.5313,64.5469 120.6719,64.4688 Q120.8281,64.3906 121.0313,64.3906 Q121.3594,64.3906 121.6094,64.6563 Q121.875,64.9063 121.875,65.25 Q121.875,65.5938 121.5313,66 Q121.0313,66.5781 120.2344,66.9063 Q119.1563,67.3594 117.8594,67.3594 Q116.3438,67.3594 115.1406,66.7344 Q114.1563,66.2344 113.4688,65.1719 Q112.7813,64.0938 112.7813,62.8125 L112.7813,61.6563 Q112.7813,60.3281 113.3906,59.1875 Q114.0156,58.0313 115.1094,57.4219 Q116.2031,56.7969 117.4375,56.7969 Q118.1719,56.7969 118.8125,56.9688 Q119.4688,57.125 120.0156,57.4844 Z " fill="#000000"/><text fill="#000000" font-family="sans-serif" font-size="14" lengthAdjust="spacing" textLength="56" x="137.75" y="67.3379">Stigespill</text><line style="stroke:#A80036;stroke-width:1.0;" x1="69.5" x2="229.5" y1="77.6094" y2="77.6094"/><ellipse cx="79.5" cy="91.9141" fill="none" rx="3" ry="3" style="stroke:#038048;stroke-width:1.0;"/><text fill="#000000" font-family="sans-serif" font-size="14" lengthAdjust="spacing" textLength="110" x="88.5" y="96.1426">Terning : Terning</text><ellipse cx="79.5" cy="109.5234" fill="none" rx="3" ry="3" style="stroke:#038048;stroke-width:1.0;"/><text fill="#000000" font-family="sans-serif" font-size="14" lengthAdjust="spacing" textLength="72" x="88.5" y="113.752">Brett : Brett</text><ellipse cx="79.5" cy="127.1328" fill="none" rx="3" ry="3" style="stroke:#038048;stroke-width:1.0;"/><text fill="#000000" font-family="sans-serif" font-size="14" lengthAdjust="spacing" textLength="136" x="88.5" y="131.3613">Spillere : List&lt;Spiller&gt;</text><line style="stroke:#A80036;stroke-width:1.0;" x1="69.5" x2="229.5" y1="138.4375" y2="138.4375"/></g><!--MD5=[d32527e80c9aede3ed19898949973df6]
class Brett--><g id="elem_Brett"><rect codeLine="11" fill="#FEFECE" filter="url(#f1kg9qrz2md80b)" height="83.2188" id="Brett" style="stroke:#A80036;stroke-width:1.0;" width="145" x="161" y="224.6094"/><ellipse cx="214.25" cy="240.6094" fill="#ADD1B2" rx="11" ry="11" style="stroke:#A80036;stroke-width:1.0;"/><path d="M217.0156,236.4844 Q217.1719,236.2656 217.3594,236.1563 Q217.5469,236.0469 217.7656,236.0469 Q218.1406,236.0469 218.375,236.3125 Q218.6094,236.5625 218.6094,237.1719 L218.6094,238.625 Q218.6094,239.2344 218.375,239.5 Q218.1406,239.7656 217.7656,239.7656 Q217.4219,239.7656 217.2188,239.5625 Q217.0156,239.375 216.9063,238.8594 Q216.8594,238.5 216.6719,238.3125 Q216.3438,237.9375 215.7344,237.7188 Q215.125,237.5 214.5,237.5 Q213.7344,237.5 213.0938,237.8281 Q212.4688,238.1563 211.9688,238.9063 Q211.4844,239.6563 211.4844,240.6875 L211.4844,241.7813 Q211.4844,243.0156 212.375,243.8438 Q213.2656,244.6563 214.8594,244.6563 Q215.7969,244.6563 216.4531,244.4063 Q216.8438,244.25 217.2656,243.8125 Q217.5313,243.5469 217.6719,243.4688 Q217.8281,243.3906 218.0313,243.3906 Q218.3594,243.3906 218.6094,243.6563 Q218.875,243.9063 218.875,244.25 Q218.875,244.5938 218.5313,245 Q218.0313,245.5781 217.2344,245.9063 Q216.1563,246.3594 214.8594,246.3594 Q213.3438,246.3594 212.1406,245.7344 Q211.1563,245.2344 210.4688,244.1719 Q209.7813,243.0938 209.7813,241.8125 L209.7813,240.6563 Q209.7813,239.3281 210.3906,238.1875 Q211.0156,237.0313 212.1094,236.4219 Q213.2031,235.7969 214.4375,235.7969 Q215.1719,235.7969 215.8125,235.9688 Q216.4688,236.125 217.0156,236.4844 Z " fill="#000000"/><text fill="#000000" font-family="sans-serif" font-size="14" lengthAdjust="spacing" textLength="30" x="234.75" y="246.3379">Brett</text><line style="stroke:#A80036;stroke-width:1.0;" x1="162" x2="305" y1="256.6094" y2="256.6094"/><ellipse cx="172" cy="270.9141" fill="none" rx="3" ry="3" style="stroke:#038048;stroke-width:1.0;"/><text fill="#000000" font-family="sans-serif" font-size="14" lengthAdjust="spacing" textLength="115" x="181" y="275.1426">Ruter : List&lt;Rute&gt;</text><ellipse cx="172" cy="288.5234" fill="none" rx="3" ry="3" style="stroke:#038048;stroke-width:1.0;"/><text fill="#000000" font-family="sans-serif" font-size="14" lengthAdjust="spacing" textLength="119" x="181" y="292.752">Stiger : List&lt;Stige&gt;</text><line style="stroke:#A80036;stroke-width:1.0;" x1="162" x2="305" y1="299.8281" y2="299.8281"/></g><!--MD5=[3628ea1b85af7540fd66607c2d6ca3f5]
class Rute--><g id="elem_Rute"><rect codeLine="15" fill="#FEFECE" filter="url(#f1kg9qrz2md80b)" height="83.2188" id="Rute" style="stroke:#A80036;stroke-width:1.0;" width="135" x="209" y="385.6094"/><ellipse cx="257.25" cy="401.6094" fill="#ADD1B2" rx="11" ry="11" style="stroke:#A80036;stroke-width:1.0;"/><path d="M260.0156,397.4844 Q260.1719,397.2656 260.3594,397.1563 Q260.5469,397.0469 260.7656,397.0469 Q261.1406,397.0469 261.375,397.3125 Q261.6094,397.5625 261.6094,398.1719 L261.6094,399.625 Q261.6094,400.2344 261.375,400.5 Q261.1406,400.7656 260.7656,400.7656 Q260.4219,400.7656 260.2188,400.5625 Q260.0156,400.375 259.9063,399.8594 Q259.8594,399.5 259.6719,399.3125 Q259.3438,398.9375 258.7344,398.7188 Q258.125,398.5 257.5,398.5 Q256.7344,398.5 256.0938,398.8281 Q255.4688,399.1563 254.9688,399.9063 Q254.4844,400.6563 254.4844,401.6875 L254.4844,402.7813 Q254.4844,404.0156 255.375,404.8438 Q256.2656,405.6563 257.8594,405.6563 Q258.7969,405.6563 259.4531,405.4063 Q259.8438,405.25 260.2656,404.8125 Q260.5313,404.5469 260.6719,404.4688 Q260.8281,404.3906 261.0313,404.3906 Q261.3594,404.3906 261.6094,404.6563 Q261.875,404.9063 261.875,405.25 Q261.875,405.5938 261.5313,406 Q261.0313,406.5781 260.2344,406.9063 Q259.1563,407.3594 257.8594,407.3594 Q256.3438,407.3594 255.1406,406.7344 Q254.1563,406.2344 253.4688,405.1719 Q252.7813,404.0938 252.7813,402.8125 L252.7813,401.6563 Q252.7813,400.3281 253.3906,399.1875 Q254.0156,398.0313 255.1094,397.4219 Q256.2031,396.7969 257.4375,396.7969 Q258.1719,396.7969 258.8125,396.9688 Q259.4688,397.125 260.0156,397.4844 Z " fill="#000000"/><text fill="#000000" font-family="sans-serif" font-size="14" lengthAdjust="spacing" textLength="30" x="277.75" y="407.3379">Rute</text><line style="stroke:#A80036;stroke-width:1.0;" x1="210" x2="343" y1="417.6094" y2="417.6094"/><ellipse cx="220" cy="431.9141" fill="none" rx="3" ry="3" style="stroke:#038048;stroke-width:1.0;"/><text fill="#000000" font-family="sans-serif" font-size="14" lengthAdjust="spacing" textLength="109" x="229" y="436.1426">Posisjon : Integer</text><ellipse cx="220" cy="449.5234" fill="none" rx="3" ry="3" style="stroke:#038048;stroke-width:1.0;"/><text fill="#000000" font-family="sans-serif" font-size="14" lengthAdjust="spacing" textLength="76" x="229" y="453.752">Stige : Stige</text><line style="stroke:#A80036;stroke-width:1.0;" x1="210" x2="343" y1="460.8281" y2="460.8281"/></g><!--MD5=[fbcca8b8fc7591c8aba43f2bab0d3239]
class Stige--><g id="elem_Stige"><rect codeLine="19" fill="#FEFECE" filter="url(#f1kg9qrz2md80b)" height="83.2188" id="Stige" style="stroke:#A80036;stroke-width:1.0;" width="122" x="414.5" y="224.6094"/><ellipse cx="455.6" cy="240.6094" fill="#ADD1B2" rx="11" ry="11" style="stroke:#A80036;stroke-width:1.0;"/><path d="M458.3656,236.4844 Q458.5219,236.2656 458.7094,236.1563 Q458.8969,236.0469 459.1156,236.0469 Q459.4906,236.0469 459.725,236.3125 Q459.9594,236.5625 459.9594,237.1719 L459.9594,238.625 Q459.9594,239.2344 459.725,239.5 Q459.4906,239.7656 459.1156,239.7656 Q458.7719,239.7656 458.5688,239.5625 Q458.3656,239.375 458.2563,238.8594 Q458.2094,238.5 458.0219,238.3125 Q457.6938,237.9375 457.0844,237.7188 Q456.475,237.5 455.85,237.5 Q455.0844,237.5 454.4438,237.8281 Q453.8188,238.1563 453.3188,238.9063 Q452.8344,239.6563 452.8344,240.6875 L452.8344,241.7813 Q452.8344,243.0156 453.725,243.8438 Q454.6156,244.6563 456.2094,244.6563 Q457.1469,244.6563 457.8031,244.4063 Q458.1938,244.25 458.6156,243.8125 Q458.8813,243.5469 459.0219,243.4688 Q459.1781,243.3906 459.3813,243.3906 Q459.7094,243.3906 459.9594,243.6563 Q460.225,243.9063 460.225,244.25 Q460.225,244.5938 459.8813,245 Q459.3813,245.5781 458.5844,245.9063 Q457.5063,246.3594 456.2094,246.3594 Q454.6938,246.3594 453.4906,245.7344 Q452.5063,245.2344 451.8188,244.1719 Q451.1313,243.0938 451.1313,241.8125 L451.1313,240.6563 Q451.1313,239.3281 451.7406,238.1875 Q452.3656,237.0313 453.4594,236.4219 Q454.5531,235.7969 455.7875,235.7969 Q456.5219,235.7969 457.1625,235.9688 Q457.8188,236.125 458.3656,236.4844 Z " fill="#000000"/><text fill="#000000" font-family="sans-serif" font-size="14" lengthAdjust="spacing" textLength="32" x="475.4" y="246.3379">Stige</text><line style="stroke:#A80036;stroke-width:1.0;" x1="415.5" x2="535.5" y1="256.6094" y2="256.6094"/><ellipse cx="425.5" cy="270.9141" fill="none" rx="3" ry="3" style="stroke:#038048;stroke-width:1.0;"/><text fill="#000000" font-family="sans-serif" font-size="14" lengthAdjust="spacing" textLength="96" x="434.5" y="275.1426">StartPos : Rute</text><ellipse cx="425.5" cy="288.5234" fill="none" rx="3" ry="3" style="stroke:#038048;stroke-width:1.0;"/><text fill="#000000" font-family="sans-serif" font-size="14" lengthAdjust="spacing" textLength="94" x="434.5" y="292.752">SluttPos : Rute</text><line style="stroke:#A80036;stroke-width:1.0;" x1="415.5" x2="535.5" y1="299.8281" y2="299.8281"/></g><!--MD5=[683bfe32d50c0f782d5289cea81cd6be]
class Spiller--><g id="elem_Spiller"><rect codeLine="23" fill="#FEFECE" filter="url(#f1kg9qrz2md80b)" height="83.2188" id="Spiller" style="stroke:#A80036;stroke-width:1.0;" width="116" x="9.5" y="224.6094"/><ellipse cx="44.75" cy="240.6094" fill="#ADD1B2" rx="11" ry="11" style="stroke:#A80036;stroke-width:1.0;"/><path d="M47.5156,236.4844 Q47.6719,236.2656 47.8594,236.1563 Q48.0469,236.0469 48.2656,236.0469 Q48.6406,236.0469 48.875,236.3125 Q49.1094,236.5625 49.1094,237.1719 L49.1094,238.625 Q49.1094,239.2344 48.875,239.5 Q48.6406,239.7656 48.2656,239.7656 Q47.9219,239.7656 47.7188,239.5625 Q47.5156,239.375 47.4063,238.8594 Q47.3594,238.5 47.1719,238.3125 Q46.8438,237.9375 46.2344,237.7188 Q45.625,237.5 45,237.5 Q44.2344,237.5 43.5938,237.8281 Q42.9688,238.1563 42.4688,238.9063 Q41.9844,239.6563 41.9844,240.6875 L41.9844,241.7813 Q41.9844,243.0156 42.875,243.8438 Q43.7656,244.6563 45.3594,244.6563 Q46.2969,244.6563 46.9531,244.4063 Q47.3438,244.25 47.7656,243.8125 Q48.0313,243.5469 48.1719,243.4688 Q48.3281,243.3906 48.5313,243.3906 Q48.8594,243.3906 49.1094,243.6563 Q49.375,243.9063 49.375,244.25 Q49.375,244.5938 49.0313,245 Q48.5313,245.5781 47.7344,245.9063 Q46.6563,246.3594 45.3594,246.3594 Q43.8438,246.3594 42.6406,245.7344 Q41.6563,245.2344 40.9688,244.1719 Q40.2813,243.0938 40.2813,241.8125 L40.2813,240.6563 Q40.2813,239.3281 40.8906,238.1875 Q41.5156,237.0313 42.6094,236.4219 Q43.7031,235.7969 44.9375,235.7969 Q45.6719,235.7969 46.3125,235.9688 Q46.9688,236.125 47.5156,236.4844 Z " fill="#000000"/><text fill="#000000" font-family="sans-serif" font-size="14" lengthAdjust="spacing" textLength="39" x="63.25" y="246.3379">Spiller</text><line style="stroke:#A80036;stroke-width:1.0;" x1="10.5" x2="124.5" y1="256.6094" y2="256.6094"/><ellipse cx="20.5" cy="270.9141" fill="none" rx="3" ry="3" style="stroke:#038048;stroke-width:1.0;"/><text fill="#000000" font-family="sans-serif" font-size="14" lengthAdjust="spacing" textLength="81" x="29.5" y="275.1426">Navn : String</text><ellipse cx="20.5" cy="288.5234" fill="none" rx="3" ry="3" style="stroke:#038048;stroke-width:1.0;"/><text fill="#000000" font-family="sans-serif" font-size="14" lengthAdjust="spacing" textLength="90" x="29.5" y="292.752">Brikke : Brikke</text><line style="stroke:#A80036;stroke-width:1.0;" x1="10.5" x2="124.5" y1="299.8281" y2="299.8281"/></g><!--MD5=[8ace0c6d8293b43664262972f22bc9a6]
class Brikke--><g id="elem_Brikke"><rect codeLine="27" fill="#FEFECE" filter="url(#f1kg9qrz2md80b)" height="83.2188" id="Brikke" style="stroke:#A80036;stroke-width:1.0;" width="121" x="7" y="385.6094"/><ellipse cx="44.5" cy="401.6094" fill="#ADD1B2" rx="11" ry="11" style="stroke:#A80036;stroke-width:1.0;"/><path d="M47.2656,397.4844 Q47.4219,397.2656 47.6094,397.1563 Q47.7969,397.0469 48.0156,397.0469 Q48.3906,397.0469 48.625,397.3125 Q48.8594,397.5625 48.8594,398.1719 L48.8594,399.625 Q48.8594,400.2344 48.625,400.5 Q48.3906,400.7656 48.0156,400.7656 Q47.6719,400.7656 47.4688,400.5625 Q47.2656,400.375 47.1563,399.8594 Q47.1094,399.5 46.9219,399.3125 Q46.5938,398.9375 45.9844,398.7188 Q45.375,398.5 44.75,398.5 Q43.9844,398.5 43.3438,398.8281 Q42.7188,399.1563 42.2188,399.9063 Q41.7344,400.6563 41.7344,401.6875 L41.7344,402.7813 Q41.7344,404.0156 42.625,404.8438 Q43.5156,405.6563 45.1094,405.6563 Q46.0469,405.6563 46.7031,405.4063 Q47.0938,405.25 47.5156,404.8125 Q47.7813,404.5469 47.9219,404.4688 Q48.0781,404.3906 48.2813,404.3906 Q48.6094,404.3906 48.8594,404.6563 Q49.125,404.9063 49.125,405.25 Q49.125,405.5938 48.7813,406 Q48.2813,406.5781 47.4844,406.9063 Q46.4063,407.3594 45.1094,407.3594 Q43.5938,407.3594 42.3906,406.7344 Q41.4063,406.2344 40.7188,405.1719 Q40.0313,404.0938 40.0313,402.8125 L40.0313,401.6563 Q40.0313,400.3281 40.6406,399.1875 Q41.2656,398.0313 42.3594,397.4219 Q43.4531,396.7969 44.6875,396.7969 Q45.4219,396.7969 46.0625,396.9688 Q46.7188,397.125 47.2656,397.4844 Z " fill="#000000"/><text fill="#000000" font-family="sans-serif" font-size="14" lengthAdjust="spacing" textLength="39" x="63.5" y="407.3379">Brikke</text><line style="stroke:#A80036;stroke-width:1.0;" x1="8" x2="127" y1="417.6094" y2="417.6094"/><ellipse cx="18" cy="431.9141" fill="none" rx="3" ry="3" style="stroke:#038048;stroke-width:1.0;"/><text fill="#000000" font-family="sans-serif" font-size="14" lengthAdjust="spacing" textLength="87" x="27" y="436.1426">Farge : String</text><ellipse cx="18" cy="449.5234" fill="none" rx="3" ry="3" style="stroke:#038048;stroke-width:1.0;"/><text fill="#000000" font-family="sans-serif" font-size="14" lengthAdjust="spacing" textLength="95" x="27" y="453.752">Posisjon : Rute</text><line style="stroke:#A80036;stroke-width:1.0;" x1="8" x2="127" y1="460.8281" y2="460.8281"/></g><!--MD5=[131d448e9c0afae1ae93db47c7e6485f]
class Terning--><g id="elem_Terning"><rect codeLine="31" fill="#FEFECE" filter="url(#f1kg9qrz2md80b)" height="65.6094" id="Terning" style="stroke:#A80036;stroke-width:1.0;" width="115" x="332" y="63.1094"/><ellipse cx="362.3" cy="79.1094" fill="#ADD1B2" rx="11" ry="11" style="stroke:#A80036;stroke-width:1.0;"/><path d="M365.0656,74.9844 Q365.2219,74.7656 365.4094,74.6563 Q365.5969,74.5469 365.8156,74.5469 Q366.1906,74.5469 366.425,74.8125 Q366.6594,75.0625 366.6594,75.6719 L366.6594,77.125 Q366.6594,77.7344 366.425,78 Q366.1906,78.2656 365.8156,78.2656 Q365.4719,78.2656 365.2688,78.0625 Q365.0656,77.875 364.9563,77.3594 Q364.9094,77 364.7219,76.8125 Q364.3938,76.4375 363.7844,76.2188 Q363.175,76 362.55,76 Q361.7844,76 361.1438,76.3281 Q360.5188,76.6563 360.0188,77.4063 Q359.5344,78.1563 359.5344,79.1875 L359.5344,80.2813 Q359.5344,81.5156 360.425,82.3438 Q361.3156,83.1563 362.9094,83.1563 Q363.8469,83.1563 364.5031,82.9063 Q364.8938,82.75 365.3156,82.3125 Q365.5813,82.0469 365.7219,81.9688 Q365.8781,81.8906 366.0813,81.8906 Q366.4094,81.8906 366.6594,82.1563 Q366.925,82.4063 366.925,82.75 Q366.925,83.0938 366.5813,83.5 Q366.0813,84.0781 365.2844,84.4063 Q364.2063,84.8594 362.9094,84.8594 Q361.3938,84.8594 360.1906,84.2344 Q359.2063,83.7344 358.5188,82.6719 Q357.8313,81.5938 357.8313,80.3125 L357.8313,79.1563 Q357.8313,77.8281 358.4406,76.6875 Q359.0656,75.5313 360.1594,74.9219 Q361.2531,74.2969 362.4875,74.2969 Q363.2219,74.2969 363.8625,74.4688 Q364.5188,74.625 365.0656,74.9844 Z " fill="#000000"/><text fill="#000000" font-family="sans-serif" font-size="14" lengthAdjust="spacing" textLength="49" x="379.7" y="84.8379">Terning</text><line style="stroke:#A80036;stroke-width:1.0;" x1="333" x2="446" y1="95.1094" y2="95.1094"/><ellipse cx="343" cy="109.4141" fill="none" rx="3" ry="3" style="stroke:#038048;stroke-width:1.0;"/><text fill="#000000" font-family="sans-serif" font-size="14" lengthAdjust="spacing" textLength="89" x="352" y="113.6426">Verdi : Integer</text><line style="stroke:#A80036;stroke-width:1.0;" x1="333" x2="446" y1="120.7188" y2="120.7188"/></g><!--MD5=[d02329db5535473d6783c28a2e6dac52]
link Brett to Rute--><g id="link_Brett_Rute"><path codeLine="35" d="M244.46,307.6394 C250.91,331.4694 259.03,361.5094 265.48,385.3694 " fill="none" id="Brett-Rute" style="stroke:#A80036;stroke-width:1.0;"/><polygon fill="#000000" points="261.8052,351.6118,262.2811,342.1131,256.607,343.6475,261.8052,351.6118" style="stroke:#000000;stroke-width:1.0;"/><text fill="#000000" font-family="sans-serif" font-size="13" lengthAdjust="spacing" textLength="59" x="269.5" y="352.1045">Inneholder</text><text fill="#000000" font-family="sans-serif" font-size="13" lengthAdjust="spacing" textLength="7" x="238.6956" y="329.3489">1</text><text fill="#000000" font-family="sans-serif" font-size="13" lengthAdjust="spacing" textLength="21" x="236.5845" y="374.6373">100</text></g><!--MD5=[ccf47d386937d244817224537245a3f9]
link Brett to Stige--><g id="link_Brett_Stige"><path codeLine="36" d="M306.11,266.1094 C340.64,266.1094 381.46,266.1094 414.37,266.1094 " fill="none" id="Brett-Stige" style="stroke:#A80036;stroke-width:1.0;"/><polygon fill="#000000" points="333.25,254.2852,324.2049,251.3462,324.2049,257.2241,333.25,254.2852" style="stroke:#000000;stroke-width:1.0;"/><text fill="#000000" font-family="sans-serif" font-size="13" lengthAdjust="spacing" textLength="59" x="337.25" y="259.6045">Inneholder</text><text fill="#000000" font-family="sans-serif" font-size="13" lengthAdjust="spacing" textLength="7" x="313.9361" y="280.3733">1</text><text fill="#000000" font-family="sans-serif" font-size="13" lengthAdjust="spacing" textLength="14" x="392.6995" y="280.4868">16</text></g><!--MD5=[912f918a48605004c5065c4b35122508]
link Stige to Rute--><g id="link_Stige_Rute"><path codeLine="37" d="M424.77,307.6394 C394.94,331.4694 357.35,361.5094 327.48,385.3694 " fill="none" id="Stige-Rute" style="stroke:#A80036;stroke-width:1.0;"/><polygon fill="#000000" points="382.5937,349.9061,391.4948,346.5563,387.8258,341.9641,382.5937,349.9061" style="stroke:#000000;stroke-width:1.0;"/><text fill="#000000" font-family="sans-serif" font-size="13" lengthAdjust="spacing" textLength="20" x="395.5" y="352.1045">Har</text><text fill="#000000" font-family="sans-serif" font-size="13" lengthAdjust="spacing" textLength="22" x="375.221" y="329.3489">0..1</text><text fill="#000000" font-family="sans-serif" font-size="13" lengthAdjust="spacing" textLength="7" x="328.3439" y="374.6373">2</text></g><!--MD5=[cd4207804f35cb078d3b66e5040fe919]
link Stigespill to Spiller--><g id="link_Stigespill_Spiller"><path codeLine="38" d="M125.12,147.0594 C113.08,171.7194 98.74,201.0994 87.38,224.3794 " fill="none" id="Stigespill-Spiller" style="stroke:#A80036;stroke-width:1.0;"/><text fill="#000000" font-family="sans-serif" font-size="13" lengthAdjust="spacing" textLength="36" x="109.5" y="191.1045">Spiller</text><text fill="#000000" font-family="sans-serif" font-size="13" lengthAdjust="spacing" textLength="7" x="106.2346" y="167.7709">1</text><text fill="#000000" font-family="sans-serif" font-size="13" lengthAdjust="spacing" textLength="22" x="66.8508" y="213.649">2..4</text></g><!--MD5=[b180875ae2c8d6ddc7f7be19fe5769ae]
link Stigespill to Brett--><g id="link_Stigespill_Brett"><path codeLine="39" d="M174.48,147.0594 C186.81,171.7194 201.5,201.0994 213.14,224.3794 " fill="none" id="Stigespill-Brett" style="stroke:#A80036;stroke-width:1.0;"/><text fill="#000000" font-family="sans-serif" font-size="13" lengthAdjust="spacing" textLength="7" x="170.0979" y="167.7709">1</text><text fill="#000000" font-family="sans-serif" font-size="13" lengthAdjust="spacing" textLength="7" x="193.5257" y="213.649">1</text></g><!--MD5=[af88335ed8fcc0e6fcbf92f4a5fec1dc]
link Stigespill to Terning--><g id="link_Stigespill_Terning"><path codeLine="40" d="M230.75,96.1094 C263.93,96.1094 301.54,96.1094 331.82,96.1094 " fill="none" id="Stigespill-Terning" style="stroke:#A80036;stroke-width:1.0;"/><text fill="#000000" font-family="sans-serif" font-size="13" lengthAdjust="spacing" textLength="65" x="248.75" y="89.6045">Spiller med</text><text fill="#000000" font-family="sans-serif" font-size="13" lengthAdjust="spacing" textLength="7" x="238.5488" y="110.3145">1</text><text fill="#000000" font-family="sans-serif" font-size="13" lengthAdjust="spacing" textLength="7" x="317.0523" y="110.5724">1</text></g><!--MD5=[ef330181d88a43b7e688d1950753eefa]
link Spiller to Brikke--><g id="link_Spiller_Brikke"><path codeLine="41" d="M67.5,307.6394 C67.5,331.4694 67.5,361.5094 67.5,385.3694 " fill="none" id="Spiller-Brikke" style="stroke:#A80036;stroke-width:1.0;"/><polygon fill="#000000" points="72.5,351.7852,75.4389,342.7401,69.5611,342.7401,72.5,351.7852" style="stroke:#000000;stroke-width:1.0;"/><text fill="#000000" font-family="sans-serif" font-size="13" lengthAdjust="spacing" textLength="23" x="81.5" y="352.1045">Eier</text><text fill="#000000" font-family="sans-serif" font-size="13" lengthAdjust="spacing" textLength="7" x="59.9203" y="329.3489">1</text><text fill="#000000" font-family="sans-serif" font-size="13" lengthAdjust="spacing" textLength="7" x="59.9203" y="374.6373">1</text></g><!--MD5=[9c4de56bde29491c5de84a438c649977]
link Brikke to Rute--><g id="link_Brikke_Rute"><path codeLine="42" d="M128.23,427.1094 C153.42,427.1094 182.75,427.1094 208.65,427.1094 " fill="none" id="Brikke-Rute" style="stroke:#A80036;stroke-width:1.0;"/><polygon fill="#000000" points="155.5,415.2852,146.4549,412.3462,146.4549,418.2241,155.5,415.2852" style="stroke:#000000;stroke-width:1.0;"/><text fill="#000000" font-family="sans-serif" font-size="13" lengthAdjust="spacing" textLength="31" x="159.5" y="420.6045">Er på</text><text fill="#000000" font-family="sans-serif" font-size="13" lengthAdjust="spacing" textLength="22" x="136.0755" y="441.4868">0..4</text><text fill="#000000" font-family="sans-serif" font-size="13" lengthAdjust="spacing" textLength="7" x="194.0359" y="441.3985">1</text></g><!--MD5=[d7cf2e3eb252a35f3e17d20c2d07731a]
@startuml Klassediagram

skin rose

title Stigespill - Klasse Diagram

class Stigespill{
	+Terning : Terning
	+Brett : Brett
	+Spillere : List<Spiller>
}
class Brett{
	+Ruter : List<Rute>
	+Stiger : List<Stige>
}
class Rute{
	+Posisjon : Integer
	+Stige : Stige
}
class Stige{
	+StartPos : Rute
	+SluttPos : Rute
}
class Spiller{
	+Navn : String
	+Brikke : Brikke
}
class Brikke{
	+Farge : String
	+Posisjon : Rute
}
class Terning{
	+Verdi : Integer
}

Brett "1" -down- "100 " Rute: Inneholder >
Brett "1   " -right- " 16" Stige: Inneholder >
Stige "0..1    " -down- "2" Rute : Har >
Stigespill "1  " -down- "2..4" Spiller: Spiller
Stigespill "1" -down- "1  " Brett
Stigespill "1   " -right- "   1" Terning: Spiller med
Spiller "1" -down- "1" Brikke: Eier >
Brikke "0..4" -right- "   1" Rute: Er på >

@enduml

PlantUML version 1.2022.7(Mon Aug 22 19:01:30 CEST 2022)
(GPL source distribution)
Java Runtime: OpenJDK Runtime Environment
JVM: OpenJDK 64-Bit Server VM
Default Encoding: UTF-8
Language: en
Country: GB
--></g></svg>