<?xml version="1.0" encoding="UTF-8" standalone="no"?><svg xmlns="http://www.w3.org/2000/svg" xmlns:xlink="http://www.w3.org/1999/xlink" contentStyleType="text/css" height="751px" preserveAspectRatio="none" style="width:837px;height:751px;background:#FFFFFF;" version="1.1" viewBox="0 0 837 751" width="837px" zoomAndPan="magnify"><defs><filter height="300%" id="f11hf2crchgdei" width="300%" x="-1" y="-1"><feGaussianBlur result="blurOut" stdDeviation="2.0"/><feColorMatrix in="blurOut" result="blurOut2" type="matrix" values="0 0 0 0 0 0 0 0 0 0 0 0 0 0 0 0 0 0 .4 0"/><feOffset dx="4.0" dy="4.0" in="blurOut2" result="blurOut3"/><feBlend in="SourceGraphic" in2="blurOut3" mode="normal"/></filter></defs><g><rect fill="none" height="27.6094" id="_title" style="stroke:none;stroke-width:1.0;" width="210" x="311.25" y="10"/><text fill="#000000" font-family="sans-serif" font-size="14" font-weight="bold" lengthAdjust="spacing" textLength="200" x="316.25" y="29.5332">Stigespill - Sekvens Diagram</text><rect fill="none" filter="url(#f11hf2crchgdei)" height="562.6484" style="stroke:#000000;stroke-width:2.0;" width="820.5" x="3" y="127.5703"/><rect fill="none" filter="url(#f11hf2crchgdei)" height="530.2969" style="stroke:#000000;stroke-width:2.0;" width="810.5" x="3" y="152.9219"/><rect fill="none" filter="url(#f11hf2crchgdei)" height="211.7813" style="stroke:#000000;stroke-width:2.0;" width="441.5" x="362" y="360.3828"/><line style="stroke:#A80036;stroke-width:1.0;stroke-dasharray:5.0,5.0;" x1="64" x2="64" y1="80.2188" y2="707.2188"/><line style="stroke:#A80036;stroke-width:1.0;stroke-dasharray:5.0,5.0;" x1="139" x2="139" y1="80.2188" y2="707.2188"/><line style="stroke:#A80036;stroke-width:1.0;stroke-dasharray:5.0,5.0;" x1="205" x2="205" y1="80.2188" y2="707.2188"/><line style="stroke:#A80036;stroke-width:1.0;stroke-dasharray:5.0,5.0;" x1="326" x2="326" y1="80.2188" y2="707.2188"/><line style="stroke:#A80036;stroke-width:1.0;stroke-dasharray:5.0,5.0;" x1="402" x2="402" y1="80.2188" y2="707.2188"/><line style="stroke:#A80036;stroke-width:1.0;stroke-dasharray:5.0,5.0;" x1="627.5" x2="627.5" y1="80.2188" y2="707.2188"/><line style="stroke:#A80036;stroke-width:1.0;stroke-dasharray:5.0,5.0;" x1="690.5" x2="690.5" y1="80.2188" y2="707.2188"/><line style="stroke:#A80036;stroke-width:1.0;stroke-dasharray:5.0,5.0;" x1="760.5" x2="760.5" y1="80.2188" y2="707.2188"/><rect fill="#FEFECE" filter="url(#f11hf2crchgdei)" height="31.6094" style="stroke:#A80036;stroke-width:1.5;" width="74" x="25" y="43.6094"/><text fill="#000000" font-family="sans-serif" font-size="14" lengthAdjust="spacing" textLength="60" x="32" y="65.1426">:Stigespill</text><rect fill="#FEFECE" filter="url(#f11hf2crchgdei)" height="31.6094" style="stroke:#A80036;stroke-width:1.5;" width="74" x="25" y="706.2188"/><text fill="#000000" font-family="sans-serif" font-size="14" lengthAdjust="spacing" textLength="60" x="32" y="727.752">:Stigespill</text><rect fill="#FEFECE" filter="url(#f11hf2crchgdei)" height="31.6094" style="stroke:#A80036;stroke-width:1.5;" width="48" x="113" y="43.6094"/><text fill="#000000" font-family="sans-serif" font-size="14" lengthAdjust="spacing" textLength="34" x="120" y="65.1426">:Brett</text><rect fill="#FEFECE" filter="url(#f11hf2crchgdei)" height="31.6094" style="stroke:#A80036;stroke-width:1.5;" width="48" x="113" y="706.2188"/><text fill="#000000" font-family="sans-serif" font-size="14" lengthAdjust="spacing" textLength="34" x="120" y="727.752">:Brett</text><rect fill="#FEFECE" filter="url(#f11hf2crchgdei)" height="31.6094" style="stroke:#A80036;stroke-width:1.5;" width="57" x="175" y="43.6094"/><text fill="#000000" font-family="sans-serif" font-size="14" lengthAdjust="spacing" textLength="43" x="182" y="65.1426">:Spiller</text><rect fill="#FEFECE" filter="url(#f11hf2crchgdei)" height="31.6094" style="stroke:#A80036;stroke-width:1.5;" width="57" x="175" y="706.2188"/><text fill="#000000" font-family="sans-serif" font-size="14" lengthAdjust="spacing" textLength="43" x="182" y="727.752">:Spiller</text><rect fill="#FEFECE" filter="url(#f11hf2crchgdei)" height="31.6094" style="stroke:#A80036;stroke-width:1.5;" width="67" x="291" y="43.6094"/><text fill="#000000" font-family="sans-serif" font-size="14" lengthAdjust="spacing" textLength="53" x="298" y="65.1426">:Terning</text><rect fill="#FEFECE" filter="url(#f11hf2crchgdei)" height="31.6094" style="stroke:#A80036;stroke-width:1.5;" width="67" x="291" y="706.2188"/><text fill="#000000" font-family="sans-serif" font-size="14" lengthAdjust="spacing" textLength="53" x="298" y="727.752">:Terning</text><rect fill="#FEFECE" filter="url(#f11hf2crchgdei)" height="31.6094" style="stroke:#A80036;stroke-width:1.5;" width="57" x="372" y="43.6094"/><text fill="#000000" font-family="sans-serif" font-size="14" lengthAdjust="spacing" textLength="43" x="379" y="65.1426">:Brikke</text><rect fill="#FEFECE" filter="url(#f11hf2crchgdei)" height="31.6094" style="stroke:#A80036;stroke-width:1.5;" width="57" x="372" y="706.2188"/><text fill="#000000" font-family="sans-serif" font-size="14" lengthAdjust="spacing" textLength="43" x="379" y="727.752">:Brikke</text><rect fill="#FEFECE" filter="url(#f11hf2crchgdei)" height="31.6094" style="stroke:#A80036;stroke-width:1.5;" width="48" x="601.5" y="43.6094"/><text fill="#000000" font-family="sans-serif" font-size="14" lengthAdjust="spacing" textLength="34" x="608.5" y="65.1426">:Rute</text><rect fill="#FEFECE" filter="url(#f11hf2crchgdei)" height="31.6094" style="stroke:#A80036;stroke-width:1.5;" width="48" x="601.5" y="706.2188"/><text fill="#000000" font-family="sans-serif" font-size="14" lengthAdjust="spacing" textLength="34" x="608.5" y="727.752">:Rute</text><rect fill="#FEFECE" filter="url(#f11hf2crchgdei)" height="31.6094" style="stroke:#A80036;stroke-width:1.5;" width="50" x="663.5" y="43.6094"/><text fill="#000000" font-family="sans-serif" font-size="14" lengthAdjust="spacing" textLength="36" x="670.5" y="65.1426">:Stige</text><rect fill="#FEFECE" filter="url(#f11hf2crchgdei)" height="31.6094" style="stroke:#A80036;stroke-width:1.5;" width="50" x="663.5" y="706.2188"/><text fill="#000000" font-family="sans-serif" font-size="14" lengthAdjust="spacing" textLength="36" x="670.5" y="727.752">:Stige</text><rect fill="#FEFECE" filter="url(#f11hf2crchgdei)" height="31.6094" style="stroke:#A80036;stroke-width:1.5;" width="62" x="727.5" y="43.6094"/><text fill="#000000" font-family="sans-serif" font-size="14" lengthAdjust="spacing" textLength="48" x="734.5" y="65.1426">:Slange</text><rect fill="#FEFECE" filter="url(#f11hf2crchgdei)" height="31.6094" style="stroke:#A80036;stroke-width:1.5;" width="62" x="727.5" y="706.2188"/><text fill="#000000" font-family="sans-serif" font-size="14" lengthAdjust="spacing" textLength="48" x="734.5" y="727.752">:Slange</text><polygon fill="#A80036" points="52,108.5703,62,112.5703,52,116.5703,56,112.5703" style="stroke:#A80036;stroke-width:1.0;"/><line style="stroke:#A80036;stroke-width:1.0;" x1="0" x2="58" y1="112.5703" y2="112.5703"/><text fill="#000000" font-family="sans-serif" font-size="13" lengthAdjust="spacing" textLength="33" x="7" y="107.7139">Spill()</text><path d="M3,127.5703 L76,127.5703 L76,135.9219 L66,145.9219 L3,145.9219 L3,127.5703 " fill="#EEEEEE" style="stroke:#000000;stroke-width:1.0;"/><rect fill="none" height="562.6484" style="stroke:#000000;stroke-width:2.0;" width="820.5" x="3" y="127.5703"/><text fill="#000000" font-family="sans-serif" font-size="13" font-weight="bold" lengthAdjust="spacing" textLength="28" x="18" y="142.0654">loop</text><text fill="#000000" font-family="sans-serif" font-size="11" font-weight="bold" lengthAdjust="spacing" textLength="44" x="91" y="140.9893">[til vinn]</text><path d="M3,152.9219 L76,152.9219 L76,161.2734 L66,171.2734 L3,171.2734 L3,152.9219 " fill="#EEEEEE" style="stroke:#000000;stroke-width:1.0;"/><rect fill="none" height="530.2969" style="stroke:#000000;stroke-width:2.0;" width="810.5" x="3" y="152.9219"/><text fill="#000000" font-family="sans-serif" font-size="13" font-weight="bold" lengthAdjust="spacing" textLength="28" x="18" y="167.417">loop</text><text fill="#000000" font-family="sans-serif" font-size="11" font-weight="bold" lengthAdjust="spacing" textLength="72" x="91" y="166.3408">[alle spillere]</text><polygon fill="#A80036" points="193.5,189.625,203.5,193.625,193.5,197.625,197.5,193.625" style="stroke:#A80036;stroke-width:1.0;"/><line style="stroke:#A80036;stroke-width:1.0;" x1="64" x2="199.5" y1="193.625" y2="193.625"/><text fill="#000000" font-family="sans-serif" font-size="13" lengthAdjust="spacing" textLength="63" x="71" y="188.7686">spillTrekk()</text><polygon fill="#A80036" points="314.5,219.9766,324.5,223.9766,314.5,227.9766,318.5,223.9766" style="stroke:#A80036;stroke-width:1.0;"/><line style="stroke:#A80036;stroke-width:1.0;" x1="205.5" x2="320.5" y1="223.9766" y2="223.9766"/><text fill="#000000" font-family="sans-serif" font-size="13" lengthAdjust="spacing" textLength="25" x="212.5" y="219.1201">trill()</text><polygon fill="#A80036" points="314.5,250.3281,324.5,254.3281,314.5,258.3281,318.5,254.3281" style="stroke:#A80036;stroke-width:1.0;"/><line style="stroke:#A80036;stroke-width:1.0;" x1="205.5" x2="320.5" y1="254.3281" y2="254.3281"/><text fill="#000000" font-family="sans-serif" font-size="13" lengthAdjust="spacing" textLength="97" x="212.5" y="249.4717">steg = getVerdi()</text><polygon fill="#A80036" points="390.5,280.6797,400.5,284.6797,390.5,288.6797,394.5,284.6797" style="stroke:#A80036;stroke-width:1.0;"/><line style="stroke:#A80036;stroke-width:1.0;" x1="205.5" x2="396.5" y1="284.6797" y2="284.6797"/><text fill="#000000" font-family="sans-serif" font-size="13" lengthAdjust="spacing" textLength="54" x="212.5" y="279.8232">flytt(steg)</text><polygon fill="#A80036" points="615.5,311.0313,625.5,315.0313,615.5,319.0313,619.5,315.0313" style="stroke:#A80036;stroke-width:1.0;"/><line style="stroke:#A80036;stroke-width:1.0;" x1="402.5" x2="621.5" y1="315.0313" y2="315.0313"/><text fill="#000000" font-family="sans-serif" font-size="13" lengthAdjust="spacing" textLength="54" x="409.5" y="310.1748">flytt(steg)</text><polygon fill="#A80036" points="615.5,341.3828,625.5,345.3828,615.5,349.3828,619.5,345.3828" style="stroke:#A80036;stroke-width:1.0;"/><line style="stroke:#A80036;stroke-width:1.0;" x1="402.5" x2="621.5" y1="345.3828" y2="345.3828"/><text fill="#000000" font-family="sans-serif" font-size="13" lengthAdjust="spacing" textLength="201" x="409.5" y="340.5264">obstruksjon = harObstruksjon(rute)</text><path d="M362,360.3828 L423,360.3828 L423,368.7344 L413,378.7344 L362,378.7344 L362,360.3828 " fill="#EEEEEE" style="stroke:#000000;stroke-width:1.0;"/><rect fill="none" height="211.7813" style="stroke:#000000;stroke-width:2.0;" width="441.5" x="362" y="360.3828"/><text fill="#000000" font-family="sans-serif" font-size="13" font-weight="bold" lengthAdjust="spacing" textLength="16" x="377" y="374.8779">alt</text><text fill="#000000" font-family="sans-serif" font-size="11" font-weight="bold" lengthAdjust="spacing" textLength="114" x="438" y="373.8018">[obstruksjon == null]</text><line style="stroke:#A80036;stroke-width:1.0;" x1="402.5" x2="444.5" y1="391.4102" y2="391.4102"/><line style="stroke:#A80036;stroke-width:1.0;" x1="444.5" x2="444.5" y1="391.4102" y2="404.4102"/><line style="stroke:#A80036;stroke-width:1.0;" x1="403.5" x2="444.5" y1="404.4102" y2="404.4102"/><polygon fill="#A80036" points="413.5,400.4102,403.5,404.4102,413.5,408.4102,409.5,404.4102" style="stroke:#A80036;stroke-width:1.0;"/><path d="M452,383.7344 L452,409.7344 L596,409.7344 L596,393.7344 L586,383.7344 L452,383.7344 " fill="#FBFB77" filter="url(#f11hf2crchgdei)" style="stroke:#A80036;stroke-width:1.0;"/><path d="M586,383.7344 L586,393.7344 L596,393.7344 L586,383.7344 " fill="#FBFB77" style="stroke:#A80036;stroke-width:1.0;"/><text fill="#000000" font-family="sans-serif" font-size="13" lengthAdjust="spacing" textLength="123" x="458" y="402.2295">Beholder denne ruten</text><line style="stroke:#000000;stroke-width:1.0;stroke-dasharray:2.0,2.0;" x1="362" x2="803.5" y1="420.0859" y2="420.0859"/><text fill="#000000" font-family="sans-serif" font-size="11" font-weight="bold" lengthAdjust="spacing" textLength="122" x="367" y="431.5049">[obstruksjon == stige]</text><polygon fill="#A80036" points="678.5,453.2734,688.5,457.2734,678.5,461.2734,682.5,457.2734" style="stroke:#A80036;stroke-width:1.0;"/><line style="stroke:#A80036;stroke-width:1.0;" x1="402.5" x2="684.5" y1="457.2734" y2="457.2734"/><text fill="#000000" font-family="sans-serif" font-size="13" lengthAdjust="spacing" textLength="125" x="409.5" y="452.417">rute = hentSluttRute()</text><polygon fill="#A80036" points="615.5,483.625,625.5,487.625,615.5,491.625,619.5,487.625" style="stroke:#A80036;stroke-width:1.0;"/><line style="stroke:#A80036;stroke-width:1.0;" x1="402.5" x2="621.5" y1="487.625" y2="487.625"/><text fill="#000000" font-family="sans-serif" font-size="13" lengthAdjust="spacing" textLength="91" x="409.5" y="482.7686">flyttTilRute(rute)</text><line style="stroke:#000000;stroke-width:1.0;stroke-dasharray:2.0,2.0;" x1="362" x2="803.5" y1="496.625" y2="496.625"/><text fill="#000000" font-family="sans-serif" font-size="11" font-weight="bold" lengthAdjust="spacing" textLength="131" x="367" y="508.0439">[obstruksjon == slange]</text><polygon fill="#A80036" points="748.5,529.8125,758.5,533.8125,748.5,537.8125,752.5,533.8125" style="stroke:#A80036;stroke-width:1.0;"/><line style="stroke:#A80036;stroke-width:1.0;" x1="402.5" x2="754.5" y1="533.8125" y2="533.8125"/><text fill="#000000" font-family="sans-serif" font-size="13" lengthAdjust="spacing" textLength="125" x="409.5" y="528.9561">rute = hentSluttRute()</text><polygon fill="#A80036" points="615.5,560.1641,625.5,564.1641,615.5,568.1641,619.5,564.1641" style="stroke:#A80036;stroke-width:1.0;"/><line style="stroke:#A80036;stroke-width:1.0;" x1="402.5" x2="621.5" y1="564.1641" y2="564.1641"/><text fill="#000000" font-family="sans-serif" font-size="13" lengthAdjust="spacing" textLength="91" x="409.5" y="559.3076">flyttTilRute(rute)</text><polygon fill="#A80036" points="390.5,597.5156,400.5,601.5156,390.5,605.5156,394.5,601.5156" style="stroke:#A80036;stroke-width:1.0;"/><line style="stroke:#A80036;stroke-width:1.0;" x1="205.5" x2="396.5" y1="601.5156" y2="601.5156"/><text fill="#000000" font-family="sans-serif" font-size="13" lengthAdjust="spacing" textLength="91" x="212.5" y="596.6592">rute = getRute()</text><line style="stroke:#A80036;stroke-width:1.0;" x1="205.5" x2="247.5" y1="631.8672" y2="631.8672"/><line style="stroke:#A80036;stroke-width:1.0;" x1="247.5" x2="247.5" y1="631.8672" y2="644.8672"/><line style="stroke:#A80036;stroke-width:1.0;" x1="206.5" x2="247.5" y1="644.8672" y2="644.8672"/><polygon fill="#A80036" points="216.5,640.8672,206.5,644.8672,216.5,648.8672,212.5,644.8672" style="stroke:#A80036;stroke-width:1.0;"/><text fill="#000000" font-family="sans-serif" font-size="13" lengthAdjust="spacing" textLength="104" x="212.5" y="627.0107">spiller = getNavn()</text><polygon fill="#A80036" points="11,671.2188,1,675.2188,11,679.2188,7,675.2188" style="stroke:#A80036;stroke-width:1.0;"/><line style="stroke:#A80036;stroke-width:1.0;stroke-dasharray:2.0,2.0;" x1="5" x2="204.5" y1="675.2188" y2="675.2188"/><text fill="#000000" font-family="sans-serif" font-size="13" lengthAdjust="spacing" textLength="97" x="17" y="670.3623">steg, spiller, rute</text><!--MD5=[2dc9538063654d405ec5e017fe5d3eab]
@startuml Sekvensdiagram

skin rose

title "Stigespill - Sekvens Diagram"

participant ":Stigespill" as sp
participant ":Brett" as bt
participant ":Spiller" as s
participant ":Terning" as t
participant ":Brikke" as br
participant ":Rute" as r
participant ":Stige" as st
participant ":Slange" as sl

-> sp: Spill()
loop til vinn
	loop alle spillere
		sp -> s: spillTrekk()
		s -> t: trill()
		s -> t: steg = getVerdi()
		s -> br: flytt(steg)
		br -> r: flytt(steg)
		br -> r: obstruksjon = harObstruksjon(rute)
		alt obstruksjon == null
			br -> br
			note right
				Beholder denne ruten
			end note
		else obstruksjon == stige
			br -> st: rute = hentSluttRute()
			br -> r: flyttTilRute(rute)
		else obstruksjon == slange
			br -> sl: rute = hentSluttRute()
			br -> r: flyttTilRute(rute)
		end

		s -> br: rute = getRute()
		s -> s: spiller = getNavn()
		<- - s: steg, spiller, rute
	end
end


@enduml

PlantUML version 1.2022.7(Mon Aug 22 19:01:30 CEST 2022)
(GPL source distribution)
Java Runtime: OpenJDK Runtime Environment
JVM: OpenJDK 64-Bit Server VM
Default Encoding: UTF-8
Language: en
Country: GB
--></g></svg>